HIERARCHY
ROOT hip
{
  OFFSET 0.00112043 5.09927 -9.65472
  CHANNELS 6 Xposition Yposition Zposition Zrotation Xrotation Yrotation
  JOINT abdomen
  {
    OFFSET 0 -1.186 -1.5018
    CHANNELS 3 Zrotation Xrotation Yrotation
    JOINT abdomen2
    {
      OFFSET 0 9.964 0.2134
      CHANNELS 3 Zrotation Xrotation Yrotation
      JOINT chest
      {
        OFFSET 0 13.134 -3.2573
        CHANNELS 3 Zrotation Xrotation Yrotation
        JOINT neck
        {
          OFFSET 0 20.686 -1.6905
          CHANNELS 3 Zrotation Xrotation Yrotation
          JOINT head
          {
            OFFSET 0 7.238 -0.1237
            CHANNELS 3 Zrotation Xrotation Yrotation
            End Site
            {
              OFFSET 0 0 0
            }
          }
        }
        JOINT lCollar
        {
          OFFSET 1.7069 20.075 5.0056
          CHANNELS 3 Zrotation Xrotation Yrotation
          JOINT lShldr
          {
            OFFSET 13.6458 -0.047 -4.849
            CHANNELS 3 Zrotation Xrotation Yrotation
            JOINT lForeArm
            {
              OFFSET 28.3255 -0.9759 2.2888
              CHANNELS 3 Zrotation Xrotation Yrotation
              JOINT lHand
              {
                OFFSET 22.1583 -0.53 10.8316
                CHANNELS 3 Zrotation Xrotation Yrotation
                JOINT lThumb1
                {
                  OFFSET 0.786 0.112 2.5817
                  CHANNELS 3 Zrotation Xrotation Yrotation
                  JOINT lThumb2
                  {
                    OFFSET 0.3601 -0.878 4.2331
                    CHANNELS 3 Zrotation Xrotation Yrotation
                    JOINT lThumb2_End
                    {
                      OFFSET 1.8127 -1.216 2.2227
                      CHANNELS 3 Zrotation Xrotation Yrotation
                      End Site
                      {
                        OFFSET 0.0181 -0.0122 0.0222
                      }
                    }
                  }
                }
                JOINT lCarpal1
                {
                  OFFSET 0.9571 1.114 1.7695
                  CHANNELS 3 Zrotation Xrotation Yrotation
                  JOINT lIndex1
                  {
                    OFFSET 4.1246 0.487 4.1451
                    CHANNELS 3 Zrotation Xrotation Yrotation
                    JOINT lIndex2
                    {
                      OFFSET 3.4052 -1.454 2.7682
                      CHANNELS 3 Zrotation Xrotation Yrotation
                      JOINT lIndex2_End
                      {
                        OFFSET 1.4531 -1.795 1.2713
                        CHANNELS 3 Zrotation Xrotation Yrotation
                        End Site
                        {
                          OFFSET 0.0145 -0.0179 0.0127
                        }
                      }
                    }
                  }
                  JOINT lMid1
                  {
                    OFFSET 5.6954 0.21 2.1184
                    CHANNELS 3 Zrotation Xrotation Yrotation
                    JOINT lMid2
                    {
                      OFFSET 3.9766 -1.54 2.3863
                      CHANNELS 3 Zrotation Xrotation Yrotation
                      JOINT lMid2_End
                      {
                        OFFSET 1.4042 -1.926 1.125
                        CHANNELS 3 Zrotation Xrotation Yrotation
                        End Site
                        {
                          OFFSET 0.014 -0.0193 0.0113
                        }
                      }
                    }
                  }
                }
                JOINT lCarpal2
                {
                  OFFSET 2.0956 0.66 -0.3894
                  CHANNELS 3 Zrotation Xrotation Yrotation
                  JOINT lRing1
                  {
                    OFFSET 5.0395 -0.09 2.4971
                    CHANNELS 3 Zrotation Xrotation Yrotation
                    JOINT lRing2
                    {
                      OFFSET 3.7921 -1.552 1.4806
                      CHANNELS 3 Zrotation Xrotation Yrotation
                      JOINT lRing2_End
                      {
                        OFFSET 1.4655 -1.808 0.9609
                        CHANNELS 3 Zrotation Xrotation Yrotation
                        End Site
                        {
                          OFFSET 0.0147 -0.0181 0.0096
                        }
                      }
                    }
                  }
                  JOINT lPinky1
                  {
                    OFFSET 4.9141 -1.269 0.3591
                    CHANNELS 3 Zrotation Xrotation Yrotation
                    JOINT lPinky2
                    {
                      OFFSET 3.1477 -1.685 0.8462
                      CHANNELS 3 Zrotation Xrotation Yrotation
                      JOINT lPinky2_End
                      {
                        OFFSET 0.8055 -1.585 0.7955
                        CHANNELS 3 Zrotation Xrotation Yrotation
                        End Site
                        {
                          OFFSET 0.0081 -0.0158 0.008
                        }
                      }
                    }
                  }
                }
              }
            }
          }
        }
        JOINT rCollar
        {
          OFFSET -1.7069 20.075 5.0056
          CHANNELS 3 Zrotation Xrotation Yrotation
          JOINT rShldr
          {
            OFFSET -13.6458 -0.047 -4.849
            CHANNELS 3 Zrotation Xrotation Yrotation
            JOINT rForeArm
            {
              OFFSET -28.3255 -0.9759 2.2888
              CHANNELS 3 Zrotation Xrotation Yrotation
              JOINT rHand
              {
                OFFSET -22.1583 -0.53 10.8316
                CHANNELS 3 Zrotation Xrotation Yrotation
                JOINT rThumb1
                {
                  OFFSET -0.786 0.112 2.5817
                  CHANNELS 3 Zrotation Xrotation Yrotation
                  JOINT rThumb2
                  {
                    OFFSET -0.3601 -0.878 4.2331
                    CHANNELS 3 Zrotation Xrotation Yrotation
                    JOINT rThumb2_End
                    {
                      OFFSET -1.8127 -1.216 2.2227
                      CHANNELS 3 Zrotation Xrotation Yrotation
                      End Site
                      {
                        OFFSET -0.0181 -0.0122 0.0222
                      }
                    }
                  }
                }
                JOINT rCarpal1
                {
                  OFFSET -0.9571 1.114 1.7695
                  CHANNELS 3 Zrotation Xrotation Yrotation
                  JOINT rIndex1
                  {
                    OFFSET -4.1246 0.487 4.1451
                    CHANNELS 3 Zrotation Xrotation Yrotation
                    JOINT rIndex2
                    {
                      OFFSET -3.4052 -1.454 2.7682
                      CHANNELS 3 Zrotation Xrotation Yrotation
                      JOINT rIndex2_End
                      {
                        OFFSET -1.4531 -1.795 1.2713
                        CHANNELS 3 Zrotation Xrotation Yrotation
                        End Site
                        {
                          OFFSET -0.0145 -0.018 0.0127
                        }
                      }
                    }
                  }
                  JOINT rMid1
                  {
                    OFFSET -5.6954 0.21 2.1184
                    CHANNELS 3 Zrotation Xrotation Yrotation
                    JOINT rMid2
                    {
                      OFFSET -3.9766 -1.54 2.3863
                      CHANNELS 3 Zrotation Xrotation Yrotation
                      JOINT rMid2_End
                      {
                        OFFSET -1.4042 -1.926 1.125
                        CHANNELS 3 Zrotation Xrotation Yrotation
                        End Site
                        {
                          OFFSET -0.014 -0.0193 0.0113
                        }
                      }
                    }
                  }
                }
                JOINT rCarpal2
                {
                  OFFSET -2.0956 0.66 -0.3894
                  CHANNELS 3 Zrotation Xrotation Yrotation
                  JOINT rRing1
                  {
                    OFFSET -5.0395 -0.09 2.4971
                    CHANNELS 3 Zrotation Xrotation Yrotation
                    JOINT rRing2
                    {
                      OFFSET -3.7921 -1.552 1.4806
                      CHANNELS 3 Zrotation Xrotation Yrotation
                      JOINT rRing2_End
                      {
                        OFFSET -1.4655 -1.808 0.9609
                        CHANNELS 3 Zrotation Xrotation Yrotation
                        End Site
                        {
                          OFFSET -0.0147 -0.0181 0.0096
                        }
                      }
                    }
                  }
                  JOINT rPinky1
                  {
                    OFFSET -4.9141 -1.269 0.3592
                    CHANNELS 3 Zrotation Xrotation Yrotation
                    JOINT rPinky2
                    {
                      OFFSET -3.1477 -1.685 0.8462
                      CHANNELS 3 Zrotation Xrotation Yrotation
                      JOINT rPinky2_End
                      {
                        OFFSET -0.8055 -1.585 0.7955
                        CHANNELS 3 Zrotation Xrotation Yrotation
                        End Site
                        {
                          OFFSET -0.0081 -0.0158 0.008
                        }
                      }
                    }
                  }
                }
              }
            }
          }
        }
      }
    }
  }
  JOINT lThigh
  {
    OFFSET 8.367 -8.2066 0.5982
    CHANNELS 3 Zrotation Xrotation Yrotation
    JOINT lShin
    {
      OFFSET 2.1923 -43.463 -0.4932
      CHANNELS 3 Zrotation Xrotation Yrotation
      JOINT lFoot
      {
        OFFSET 0.7333 -45.8593 -2.6451
        CHANNELS 3 Zrotation Xrotation Yrotation
        End Site
        {
          OFFSET 2.6618 -4.2699 12.3931
        }
      }
    }
  }
  JOINT rThigh
  {
    OFFSET -8.367 -8.2066 0.5982
    CHANNELS 3 Zrotation Xrotation Yrotation
    JOINT rShin
    {
      OFFSET -2.1923 -43.463 -0.4931
      CHANNELS 3 Zrotation Xrotation Yrotation
      JOINT rFoot
      {
        OFFSET -0.7333 -45.8593 -2.6451
        CHANNELS 3 Zrotation Xrotation Yrotation
        End Site
        {
          OFFSET -2.6618 -4.2699 12.3931
        }
      }
    }
  }
}
MOTION
Frames:	5
Frame Time:	0.0333333
0 91.7903 2.51682 0 0 -0 0 0 -0 0 0 -0 0 0 -0 0 0 -0 0 0 -0 0 0 -0 1.66051 0.0835086 5.75766 -0.0175111 0.895433 15.7816 7.95139e-016 -1.98785e-016 -0 5.46658e-016 -3.97569e-016 -0 5.96354e-016 0 -0 3.97569e-016 1.98785e-016 9.54166e-015 1.49089e-016 -3.97569e-016 -0 6.4605e-016 0 3.18055e-015 5.96354e-016 0 3.18055e-015 8.94531e-016 -1.98785e-016 6.36111e-015 6.4605e-016 0 3.18055e-015 5.96354e-016 0 3.18055e-015 8.94531e-016 -1.98785e-016 6.36111e-015 1.49089e-016 -3.97569e-016 -0 6.4605e-016 0 3.18055e-015 5.96354e-016 0 3.18055e-015 8.94531e-016 -1.98785e-016 6.36111e-015 6.4605e-016 0 3.18055e-015 5.96354e-016 0 3.18055e-015 8.94531e-016 -1.98785e-016 6.36111e-015 0 0 -0 -1.4496 0.0636048 -5.0245 -1.74811 1.20616 -16.8394 -1.19271e-015 1.98785e-016 -3.18055e-015 -3.97569e-016 1.98785e-016 -3.18055e-015 -2.98177e-016 1.98785e-016 -3.18055e-015 -2.98177e-016 3.97569e-016 -0 4.96962e-016 0 -6.36111e-015 -9.93923e-017 3.97569e-016 -0 -8.94531e-016 5.96354e-016 -0 -3.97569e-016 3.97569e-016 -0 -9.93923e-017 3.97569e-016 -0 -8.94531e-016 5.96354e-016 -0 -3.97569e-016 3.97569e-016 -0 4.96962e-016 0 -6.36111e-015 -9.93923e-017 3.97569e-016 -0 -8.94531e-016 5.96354e-016 -0 -3.97569e-016 3.97569e-016 -0 -9.93923e-017 3.97569e-016 -0 -8.94531e-016 5.96354e-016 -0 -3.97569e-016 3.97569e-016 -0 -4.66111 -0.998717 0.12318 0.00986924 1.54847 0.176523 4.65186 -0.572283 -0.254274 4.66111 -0.998765 -0.123176 -0.00986867 1.54869 -0.176537 -4.65186 -0.572453 0.25427 
-1.02302 -5.27429 -0.85338 -180 -89.9981 -180 -0.00630839 5.23578 -0.103316 -0.00310912 10.4716 -0.207358 -0.00310915 10.4715 -0.207358 1.00799e-006 17.9988 -7.70835e-008 1.24525e-007 8.99856 -1.63357e-007 1.24442 0.57967 10.4952 -71.9645 -7.50347 -5.8702 -5.91345 -9.27105 -53.6679 -54.2151 -8.54206 7.90957 -4.06086e-006 -2.33623e-006 2.04221e-006 -3.37805e-008 -3.19642e-006 5.55379e-006 -4.72798e-006 6.48305e-006 -5.0214e-006 -3.18055e-015 0 -3.18055e-015 -4.06086e-006 -2.33623e-006 2.04221e-006 -3.37805e-008 -3.19642e-006 5.55379e-006 -4.72798e-006 6.48305e-006 -5.0214e-006 -4.06086e-006 -2.33623e-006 2.04221e-006 -3.37805e-008 -3.19642e-006 5.55379e-006 -4.72798e-006 6.48305e-006 -5.0214e-006 -3.18055e-015 0 -3.18055e-015 -4.06086e-006 -2.33623e-006 2.04221e-006 -3.37805e-008 -3.19642e-006 5.55379e-006 -4.72798e-006 6.48305e-006 -5.0214e-006 -4.06086e-006 -2.33623e-006 2.04221e-006 -3.37805e-008 -3.19642e-006 5.55379e-006 -4.72798e-006 6.48305e-006 -5.0214e-006 -6.61461 0.306463 5.82985 69.1287 -8.27288 23.4957 4.7019 -15.2095 59.4478 73.198 10.1772 -15.0345 2.38542e-015 -2.38542e-015 6.36111e-015 -7.95139e-016 -2.38542e-015 6.36111e-015 3.97569e-015 -2.38542e-015 6.36111e-015 2.38542e-015 -3.97569e-015 6.36111e-015 5.56597e-015 1.59028e-015 2.22639e-014 3.18055e-015 3.97569e-015 -3.18055e-015 5.56597e-015 6.36111e-015 9.54166e-015 5.56597e-015 1.59028e-015 2.22639e-014 3.18055e-015 3.97569e-015 -3.18055e-015 5.56597e-015 6.36111e-015 9.54166e-015 2.38542e-015 -3.97569e-015 6.36111e-015 5.56597e-015 1.59028e-015 2.22639e-014 3.18055e-015 3.97569e-015 -3.18055e-015 5.56597e-015 6.36111e-015 9.54166e-015 5.56597e-015 1.59028e-015 2.22639e-014 3.18055e-015 3.97569e-015 -3.18055e-015 5.56597e-015 6.36111e-015 9.54166e-015 150.644 -43.0177 161.448 -1.89674 4.78996 1.18704 11.9555 16.8929 -0.416278 -171.484 -36.1592 -177.507 2.66648 38.6416 -3.4931 -11.5809 22.0622 0.303911 
-1.00066 -5.27361 -0.839608 -180 -89.9981 -180 -0.00761596 5.35801 -0.103065 -0.00553825 10.716 -0.206778 -0.00553816 10.716 -0.206778 1.09932e-006 17.729 1.93914e-007 3.32352e-008 8.56329 -6.85131e-009 1.81144 0.370818 10.3968 -72.1652 -7.43789 -5.90024 -5.89256 -9.38203 -54.3048 -54.0966 -8.75751 7.40082 -8.45401e-007 -2.39474e-006 1.59226e-006 -2.48188e-006 -3.98701e-006 -8.02478e-007 3.53113e-031 -1.59028e-015 1.27222e-014 0 1.59028e-015 -0 -8.45401e-007 -2.39474e-006 1.59226e-006 -2.48188e-006 -3.98701e-006 -8.02478e-007 3.53113e-031 -3.18055e-015 6.36111e-015 -8.45401e-007 -2.39474e-006 1.59226e-006 -2.48188e-006 -3.98701e-006 -8.02478e-007 3.53113e-031 -3.18055e-015 6.36111e-015 0 1.59028e-015 -0 -8.45401e-007 -2.39474e-006 1.59226e-006 -2.48188e-006 -3.98701e-006 -8.02478e-007 3.53113e-031 -3.18055e-015 6.36111e-015 -8.45401e-007 -2.39474e-006 1.59226e-006 -2.48188e-006 -3.98701e-006 -8.02478e-007 3.53113e-031 -3.18055e-015 6.36111e-015 -7.2095 -0.163395 5.58641 69.3568 -8.10544 23.5266 4.73655 -15.1045 59.7938 72.9153 10.0924 -14.6017 7.95139e-016 -1.59028e-015 3.18055e-015 0 0 -6.36111e-015 -0 -2.38542e-015 -0 7.95139e-016 5.56597e-015 3.18055e-015 7.15625e-015 -3.97569e-015 6.36111e-015 -1.59028e-015 0 -6.36111e-015 3.18055e-015 0 9.54166e-015 7.15625e-015 -3.97569e-015 6.36111e-015 -1.59028e-015 0 -6.36111e-015 3.18055e-015 0 9.54166e-015 7.95139e-016 5.56597e-015 3.18055e-015 7.15625e-015 -3.97569e-015 6.36111e-015 -1.59028e-015 0 -6.36111e-015 3.18055e-015 0 9.54166e-015 7.15625e-015 -3.97569e-015 6.36111e-015 -1.59028e-015 0 -6.36111e-015 3.18055e-015 0 9.54166e-015 150.873 -43.1603 161.461 -2.02612 4.69729 1.21848 11.9565 17.068 -0.450199 -171.474 -36.1879 -177.47 2.54866 38.1886 -3.40525 -11.5761 22.0443 0.314927 
-0.978301 -5.27283 -0.825929 -180 -89.9981 -180 -0.00897321 5.48036 -0.102752 -0.00807595 10.9607 -0.206062 -0.00807587 10.9607 -0.206062 -9.38097e-007 17.4606 -4.40871e-007 -8.08311e-008 8.12764 1.12363e-007 2.37827 0.161028 10.3003 -72.3657 -7.37221 -5.93003 -5.87287 -9.49327 -54.942 -53.9799 -8.97403 6.89206 -3.18055e-015 -6.36111e-015 -0 -0 -7.95139e-015 -0 -3.18055e-015 -4.77083e-015 -0 -6.36111e-015 0 -0 -3.18055e-015 -4.77083e-015 3.18055e-015 3.18055e-015 -4.77083e-015 -0 3.18055e-015 -6.36111e-015 6.36111e-015 -3.18055e-015 -4.77083e-015 3.18055e-015 3.18055e-015 -4.77083e-015 -0 3.18055e-015 -6.36111e-015 6.36111e-015 -6.36111e-015 0 -0 -3.18055e-015 -4.77083e-015 3.18055e-015 3.18055e-015 -4.77083e-015 -0 3.18055e-015 -6.36111e-015 6.36111e-015 -3.18055e-015 -4.77083e-015 3.18055e-015 3.18055e-015 -4.77083e-015 -0 3.18055e-015 -6.36111e-015 6.36111e-015 -7.80672 -0.630888 5.33797 69.5848 -7.93788 23.5569 4.77049 -14.9994 60.1395 72.6333 10.0054 -14.1694 -1.54747e-006 -5.77677e-007 2.62982e-007 5.25965e-007 -6.87575e-007 3.09494e-006 -1.54747e-006 -5.77677e-007 2.62982e-007 -7.95139e-016 -7.95139e-016 -0 -1.54747e-006 -5.77677e-007 2.62982e-007 5.25965e-007 -6.87575e-007 3.09494e-006 -1.54747e-006 -5.77677e-007 2.62982e-007 -1.54747e-006 -5.77677e-007 2.62982e-007 5.25965e-007 -6.87575e-007 3.09494e-006 -1.54747e-006 -5.77677e-007 2.62982e-007 -7.95139e-016 -7.95139e-016 -0 -1.54747e-006 -5.77677e-007 2.62982e-007 5.25965e-007 -6.87575e-007 3.09494e-006 -1.54747e-006 -5.77677e-007 2.62982e-007 -1.54747e-006 -5.77677e-007 2.62982e-007 5.25965e-007 -6.87575e-007 3.09494e-006 -1.54747e-006 -5.77677e-007 2.62982e-007 151.102 -43.3055 161.475 -2.15542 4.59925 1.24895 11.9577 17.2456 -0.484428 -171.464 -36.2169 -177.433 2.43227 37.7351 -3.3191 -11.5713 22.0264 0.3259 
-0.955938 -5.27194 -0.812339 -180 -89.9981 -180 -0.0103358 5.60282 -0.102471 -0.0106233 11.2056 -0.205406 -0.0106233 11.2056 -0.205406 8.67651e-007 17.1902 1.72941e-008 -5.57248e-008 7.69166 4.68251e-008 2.94489 -0.0498158 10.2059 -72.5663 -7.30641 -5.95963 -5.85445 -9.60476 -55.5797 -53.8652 -9.19162 6.38333 -1.64728e-006 -3.21163e-006 4.07889e-007 -2.44733e-006 -4.01712e-006 -7.95187e-007 -8.47241e-007 -2.40615e-006 1.61096e-006 0 3.18055e-015 -0 -1.64728e-006 -3.21163e-006 4.07889e-007 -2.44733e-006 -4.01712e-006 -7.95187e-007 -8.47241e-007 -2.40615e-006 1.61096e-006 -1.64728e-006 -3.21163e-006 4.07889e-007 -2.44733e-006 -4.01712e-006 -7.95187e-007 -8.47241e-007 -2.40615e-006 1.61096e-006 0 3.18055e-015 -0 -1.64728e-006 -3.21163e-006 4.07889e-007 -2.44733e-006 -4.01712e-006 -7.95187e-007 -8.47241e-007 -2.40615e-006 1.61096e-006 -1.64728e-006 -3.21163e-006 4.07889e-007 -2.44733e-006 -4.01712e-006 -7.95187e-007 -8.47241e-007 -2.40615e-006 1.61096e-006 -8.4063 -1.09601 5.08451 69.8126 -7.77017 23.5864 4.8038 -14.894 60.485 72.352 9.91641 -13.7375 -7.54442e-007 -1.32194e-006 1.65341e-006 -7.93408e-007 7.43912e-007 -1.39484e-006 -7.54443e-007 -1.32194e-006 1.65341e-006 2.38542e-015 -3.97569e-015 -0 -7.54442e-007 -1.32194e-006 1.65341e-006 -7.93408e-007 7.43912e-007 -1.39484e-006 -7.54443e-007 -1.32194e-006 1.65341e-006 -7.54442e-007 -1.32194e-006 1.65341e-006 -7.93408e-007 7.43912e-007 -1.39484e-006 -7.54443e-007 -1.32194e-006 1.65341e-006 2.38542e-015 -3.97569e-015 -0 -7.54442e-007 -1.32194e-006 1.65341e-006 -7.93408e-007 7.43912e-007 -1.39484e-006 -7.54443e-007 -1.32194e-006 1.65341e-006 -7.54442e-007 -1.32194e-006 1.65341e-006 -7.93408e-007 7.43912e-007 -1.39484e-006 -7.54443e-007 -1.32194e-006 1.65341e-006 151.33 -43.4528 161.49 -2.28468 4.49676 1.27853 11.9592 17.4254 -0.518906 -171.454 -36.2459 -177.396 2.31723 37.2812 -3.23457 -11.5664 22.0088 0.33684 
